<svg width="152" height="214" viewBox="0 0 152 214" fill="none" xmlns="http://www.w3.org/2000/svg">
<rect width="152" height="214" fill="#A6A4A3"/>
<path d="M73.7894 77.8182V96H70.8597L62.2926 83.6154H62.1417V96H58.848V77.8182H61.7955L70.3537 90.2116H70.5135V77.8182H73.7894ZM93.6247 86.9091C93.6247 88.8681 93.2578 90.546 92.5239 91.9428C91.7959 93.3337 90.8016 94.399 89.5409 95.1388C88.2862 95.8787 86.8628 96.2486 85.2707 96.2486C83.6786 96.2486 82.2522 95.8787 80.9916 95.1388C79.7368 94.3931 78.7425 93.3248 78.0086 91.9339C77.2806 90.5372 76.9166 88.8622 76.9166 86.9091C76.9166 84.95 77.2806 83.2751 78.0086 81.8842C78.7425 80.4875 79.7368 79.4192 80.9916 78.6793C82.2522 77.9395 83.6786 77.5696 85.2707 77.5696C86.8628 77.5696 88.2862 77.9395 89.5409 78.6793C90.8016 79.4192 91.7959 80.4875 92.5239 81.8842C93.2578 83.2751 93.6247 84.95 93.6247 86.9091ZM90.3133 86.9091C90.3133 85.5301 90.0973 84.3671 89.6652 83.4201C89.2391 82.4672 88.6472 81.7481 87.8896 81.2628C87.1321 80.7715 86.2591 80.5259 85.2707 80.5259C84.2823 80.5259 83.4093 80.7715 82.6517 81.2628C81.8941 81.7481 81.2993 82.4672 80.8673 83.4201C80.4411 84.3671 80.2281 85.5301 80.2281 86.9091C80.2281 88.2881 80.4411 89.4541 80.8673 90.407C81.2993 91.3539 81.8941 92.073 82.6517 92.5643C83.4093 93.0496 84.2823 93.2923 85.2707 93.2923C86.2591 93.2923 87.1321 93.0496 87.8896 92.5643C88.6472 92.073 89.2391 91.3539 89.6652 90.407C90.0973 89.4541 90.3133 88.2881 90.3133 86.9091ZM40.6817 117.818V136H37.3881V117.818H40.6817ZM44.2484 117.818H48.2789L53.6767 130.993H53.8897L59.2875 117.818H63.318V136H60.1575V123.509H59.9888L54.964 135.947H52.6025L47.5776 123.482H47.4089V136H44.2484V117.818ZM69.2395 136H65.7239L72.1248 117.818H76.1909L82.6007 136H79.085L74.2289 121.547H74.0868L69.2395 136ZM69.3549 128.871H78.943V131.517H69.3549V128.871ZM96.3214 123.624C96.1734 123.145 95.9692 122.716 95.7088 122.337C95.4543 121.952 95.1465 121.624 94.7855 121.352C94.4304 121.079 94.022 120.875 93.5604 120.739C93.0987 120.597 92.5956 120.526 92.0511 120.526C91.0746 120.526 90.2045 120.772 89.4411 121.263C88.6776 121.754 88.0768 122.476 87.6388 123.429C87.2068 124.376 86.9908 125.53 86.9908 126.891C86.9908 128.264 87.2068 129.427 87.6388 130.38C88.0709 131.333 88.6716 132.058 89.4411 132.555C90.2105 133.047 91.1042 133.292 92.1222 133.292C93.0455 133.292 93.8445 133.115 94.5192 132.76C95.1998 132.404 95.7236 131.901 96.0906 131.25C96.4575 130.593 96.641 129.824 96.641 128.942L97.3867 129.058H92.4506V126.483H99.8281V128.667C99.8281 130.223 99.4967 131.57 98.8338 132.706C98.1709 133.843 97.2595 134.719 96.0994 135.334C94.9394 135.944 93.6077 136.249 92.1044 136.249C90.4295 136.249 88.9587 135.873 87.6921 135.121C86.4315 134.364 85.446 133.289 84.7358 131.898C84.0315 130.502 83.6793 128.844 83.6793 126.927C83.6793 125.459 83.8865 124.148 84.3008 122.994C84.721 121.84 85.3069 120.86 86.0586 120.055C86.8103 119.245 87.6921 118.629 88.7042 118.209C89.7163 117.783 90.8171 117.57 92.0067 117.57C93.0129 117.57 93.951 117.718 94.821 118.013C95.6911 118.304 96.4634 118.718 97.1381 119.256C97.8188 119.795 98.3781 120.434 98.8161 121.174C99.254 121.914 99.5411 122.731 99.6772 123.624H96.3214ZM103.013 136V117.818H114.838V120.579H106.307V125.515H114.226V128.276H106.307V133.239H114.909V136H103.013Z" fill="white"/>
</svg>
